<?xml version="1.0" standalone="no"?><!DOCTYPE svg PUBLIC "-//W3C//DTD SVG 1.1//EN" "http://www.w3.org/Graphics/SVG/1.1/DTD/svg11.dtd"><svg t="1559999345029" class="icon" style="" viewBox="0 0 1024 1024" version="1.1" xmlns="http://www.w3.org/2000/svg" p-id="31513" xmlns:xlink="http://www.w3.org/1999/xlink" width="200" height="200"><defs><style type="text/css"></style></defs><path d="M326.06697 512A186 186 0 1 0 512.06697 325.92 186.24 186.24 0 0 0 326.06697 512z" fill="#2792DD" p-id="31514"></path><path d="M258.38697 446.56A262.48 262.48 0 0 1 512.06697 250q11.36 0 22.72 0.96h417.76A512 512 0 0 0 112.06697 192.72l146.32 253.76z" fill="#EC5858" p-id="31515"></path><path d="M988.78697 324.96H695.34697a261.52 261.52 0 0 1 32 336L517.90697 1024a512 512 0 0 0 470.88-698.88z" fill="#FFB535" p-id="31516"></path><path d="M582.22697 764.4a261.92 261.92 0 0 1-307.44-141.44L65.74697 260.96a512 512 0 0 0 369.92 757.28l146.56-253.84z" fill="#43A756" p-id="31517"></path></svg>