<?xml version="1.0" standalone="no"?><!DOCTYPE svg PUBLIC "-//W3C//DTD SVG 1.1//EN" "http://www.w3.org/Graphics/SVG/1.1/DTD/svg11.dtd"><svg t="1559998962740" class="icon" style="" viewBox="0 0 1024 1024" version="1.1" xmlns="http://www.w3.org/2000/svg" p-id="24992" xmlns:xlink="http://www.w3.org/1999/xlink" width="200" height="200"><defs><style type="text/css"></style></defs><path d="M918 490V448H832v42h86z m0-106c34 0 64 30 64 64v42c0 34-30 64-64 64H832V640h-64V384h150z m-384 64v-64h192v64h-64v192h-64V448h-64z m-236 0v-64h192v64h-64v192h-64V448h-64zM192 470V384h64v256h-64V534H106V640h-64V384h64v86H192z" p-id="24993" fill="#1296db"></path></svg>