<svg id="图层_1" data-name="图层 1" xmlns="http://www.w3.org/2000/svg" viewBox="0 0 800 600"><defs><style>.cls-1{fill:#662d91;}.cls-2{fill:#231815;}.cls-3{fill:blue;}.cls-4{fill:#39b54a;}
</style></defs><title>loading</title><path class="cls-1" d="M407.5,283.67,350.83,227l56.67-56.67L464.17,227ZM357.9,227l49.6,49.6L457.1,227l-49.6-49.6Z"/><path class="cls-2" d="M345.77,344.23l-51.5-51.5,51.5-51.5,51.5,51.5Zm-44.43-51.5,44.43,44.43,44.43-44.43L345.77,248.3Z"/><path class="cls-3" d="M469,339.52l-48-48,48-48,48,48Zm-41-48,41,41,41-41-41-41Z"/><path class="cls-4" d="M405.34,394.19l-45.85-45.85,45.85-45.85,45.85,45.85Zm-38.78-45.85,38.78,38.78,38.78-38.78-38.78-38.78Z"/></svg>