<svg id="图层_1" data-name="图层 1" xmlns="http://www.w3.org/2000/svg" viewBox="0 0 200 200"><defs><style>.cls-1{fill:none;stroke:#5ed2ff;stroke-miterlimit:10;stroke-width:3px;}</style></defs><title>me</title><path class="cls-1" d="M122.91,58.13a8.35,8.35,0,1,0,8,8.34A8.19,8.19,0,0,0,122.91,58.13Zm-44.82,0a8.35,8.35,0,1,0,8,8.34A8.19,8.19,0,0,0,78.09,58.13Z"/><path class="cls-1" d="M165.94,76.56c0-35.1-29.38-63.69-65.45-63.69S35,41.46,35,76.56c0,25.35,15.31,47.23,37.42,57.46-1.19,1.86-2.32,3.63-3.34,5.39l0,0c-8.71,14.9-10.8,26.33-6.21,34.63,5.21,9.45,17.95,13.81,40,13.81h1.56c20.53-.21,32.66-4.53,38.14-13.69,5.7-9.53,3.24-23.34-7.6-42.32l-.57-.92C153.3,119.73,165.94,99.57,165.94,76.56Zm-40,40.06a16.67,16.67,0,0,0-5.72,22.95l.45.72c8.2,14.41,9.26,22.66,7.66,25.31s-8.67,5.43-23.83,5.59H103c-17.81,0-24.37-3.28-25.45-5.21-.63-1.11-.74-6.56,6-18.14.2-.33.37-.66.55-1,.78-1.29,1.62-2.6,2.36-3.75a16.66,16.66,0,0,0-7-24.16C62.6,111.11,51.7,94.49,51.7,76.58c0-25.94,21.88-47,48.77-47s48.77,21.09,48.77,47C149.28,92.95,140.57,107.91,126,116.62Z"/></svg>