<?xml version="1.0" standalone="no"?><!DOCTYPE svg PUBLIC "-//W3C//DTD SVG 1.1//EN" "http://www.w3.org/Graphics/SVG/1.1/DTD/svg11.dtd"><svg t="1560561427017" class="icon" style="" viewBox="0 0 1024 1024" version="1.1" xmlns="http://www.w3.org/2000/svg" p-id="3543" xmlns:xlink="http://www.w3.org/1999/xlink" width="200" height="200"><defs><style type="text/css"></style></defs><path d="M722.071607 1023.97952 301.927386 1023.97952c-59.578451 0-108.04327-48.464819-108.04327-108.04327L193.884116 124.488183c0-59.578451 48.464819-108.04327 108.04327-108.04327l420.144221 0c59.578451 0 108.04327 48.464819 108.04327 108.04327l0 496.205846c0 19.883312-16.131782 36.014088-36.014088 36.014088-19.883312 0-36.014088-16.131782-36.014088-36.014088L758.086701 124.488183c0-19.859148-16.15494-36.014088-36.014088-36.014088L301.927386 88.474096c-19.859148 0-36.014088 16.15494-36.014088 36.014088l0 791.448067c0 19.859148 16.15494 36.014088 36.014088 36.014088l420.144221 0c19.859148 0 36.014088-16.15494 36.014088-36.014088L758.085695 784.446418 337.918317 784.446418c-19.883312 0-36.014088-16.131782-36.014088-36.014088s16.131782-36.014088 36.014088-36.014088l456.181466 0c19.883312 0 36.014088 16.131782 36.014088 36.014088l0 167.50392C830.114878 975.514702 781.650058 1023.97952 722.071607 1023.97952zM517.989762 871.486756m-42.01694 0a41.731 41.731 0 1 0 84.033878 0 41.731 41.731 0 1 0-84.033878 0Z" p-id="3544" fill="#ffcb1f"></path></svg>