<svg id="图层_1" data-name="图层 1" xmlns="http://www.w3.org/2000/svg" viewBox="0 0 200 200"><defs><style>.cls-1{fill:none;stroke:#000;stroke-miterlimit:10;}</style></defs><title>sword</title><path class="cls-1" d="M52.81,104a3.08,3.08,0,0,0-4.36,0c-9.15,9.15-9.33,19.2-.62,28.39L28.34,151.86l-3.21-3.18a6.17,6.17,0,0,0-8.71,0l-7.18,7.19a6.17,6.17,0,0,0,0,8.73l26.18,26.18a6.18,6.18,0,0,0,8.73,0l7.18-7.18A5.89,5.89,0,0,0,53,178.75a7.76,7.76,0,0,0-2.36-4.62l-2.5-2.49,19.47-19.46c9.32,8.87,19.12,8.65,28.4-.63a3.08,3.08,0,0,0,0-4.36Zm18.5,43.18-1.56-1.53a3.09,3.09,0,0,0-4.35,0L43.77,167.29l-4.86-4.84a3.09,3.09,0,0,0-4.36,4.37L46.28,178.5c.46.45.57.81.67.73l-7.17,7.16L13.6,160.21l7.18-7.16,5.4,5.36a3.09,3.09,0,0,0,4.35,0l21.63-21.64,5.54,5.55A3.09,3.09,0,0,0,62.07,138l-9.26-9.28c-3.47-3.47-5.23-6.88-5.24-10.13a12.84,12.84,0,0,1,3.18-7.88l38.6,38.6c-6.13,4.87-11.78,4.19-18-2.08Zm35.77-75.85a3.08,3.08,0,0,1,0-4.36L159.53,14.5a3.08,3.08,0,0,1,1.51-.83L188.81,7.5a3.13,3.13,0,0,1,.56-.05l.15,0a3.17,3.17,0,0,1,1,.2l.22.1a2.76,2.76,0,0,1,1.52,1.52c0,.07.07.14.1.21a3.1,3.1,0,0,1,.2,1s0,.09,0,.14a3.17,3.17,0,0,1,0,.57L186.33,39a3.09,3.09,0,0,1-.83,1.51L133,92.92a3.08,3.08,0,1,1-4.36-4.36L180.5,36.74l3.68-16.55L122.24,82.12a3.09,3.09,0,1,1-4.36-4.36l61.94-61.94L163.26,19.5,111.44,71.32a3.08,3.08,0,0,1-4.36,0Zm76.51,77.35c-2.17-2.18-6.12-2.64-9.45.69l-2.48,2.49-19.47-19.46c8.87-9.31,8.65-19.12-.63-28.4a3.08,3.08,0,0,0-4.36,0L104,147.19a3.08,3.08,0,0,0,0,4.36c9.15,9.15,19.21,9.33,28.39.62l19.49,19.49-3.18,3.21a6.16,6.16,0,0,0,0,8.71l7.18,7.18a6.18,6.18,0,0,0,8.73,0l26.18-26.18a6.18,6.18,0,0,0,0-8.73ZM160.22,186.4l-7.16-7.18,5.36-5.4a3.09,3.09,0,0,0,0-4.35l-21.64-21.64,5.55-5.54a3.09,3.09,0,1,0-4.36-4.37l-9.28,9.26c-3.47,3.47-6.88,5.23-10.13,5.24h0a12.83,12.83,0,0,1-7.86-3.18l38.6-38.6c4.88,6.12,4.18,11.77-2.09,18l-1.53,1.55a3.09,3.09,0,0,0,0,4.35l21.64,21.64-4.85,4.86a3.09,3.09,0,0,0,4.38,4.35l11.68-11.73c.46-.45.8-.57.73-.67l7.16,7.17ZM7.44,10.48a3.07,3.07,0,0,1,.2-1c0-.07.06-.14.1-.21A2.75,2.75,0,0,1,9.25,7.73l.21-.1a3.15,3.15,0,0,1,1-.2l.15,0a3.12,3.12,0,0,1,.56.05L39,13.67a3.08,3.08,0,0,1,1.51.83L133,107.07a3.08,3.08,0,1,1-4.36,4.36L36.74,19.5,20.19,15.83l102,102a3.09,3.09,0,0,1-4.36,4.36l-102-102L19.5,36.74l91.93,91.93a3.08,3.08,0,0,1-4.36,4.36L100,126,92.92,133a3.08,3.08,0,1,1-4.36-4.36l7.08-7.08-6.44-6.44-7.08,7.08a3.09,3.09,0,1,1-4.36-4.36l7.08-7.08-6.44-6.44-7.08,7.08A3.09,3.09,0,1,1,67,107.07L74,100,14.51,40.47A3.1,3.1,0,0,1,13.67,39L7.5,11.18a3.23,3.23,0,0,1,0-.57s0-.09,0-.14Zm0,0"/></svg>