<svg id="图层_1" data-name="图层 1" xmlns="http://www.w3.org/2000/svg" viewBox="0 0 62.25 18"><defs><style>.cls-1,.cls-2{fill:none;stroke-miterlimit:10;}.cls-1{stroke:#662d91;stroke-width:0.25px;}.cls-2{stroke:#666;stroke-width:0.15px;}</style></defs><title>this</title><path class="cls-1" d="M10.11,12l-.64.64L5.54,9.37,9.47,6.09l.64.65L6.92,9.36Z"/><path class="cls-1" d="M23.61,12.48a5,5,0,0,1-.71.13,7.3,7.3,0,0,1-.75,0,2.37,2.37,0,0,1-1.65-.5,2,2,0,0,1-.54-1.54V7.54H18.3V6.68h1.65V5.07l1-.26V6.68h2.64v.86H21v3a1.23,1.23,0,0,0,.34.95,1.41,1.41,0,0,0,1,.31,4.74,4.74,0,0,0,.62,0,5.85,5.85,0,0,0,.7-.14Z"/><path class="cls-1" d="M30.19,12.57h-1V8.81a1.68,1.68,0,0,0-.25-1,.86.86,0,0,0-.73-.34,1.28,1.28,0,0,0-.38.06,1.33,1.33,0,0,0-.37.19,3.2,3.2,0,0,0-.42.37q-.23.23-.53.59v3.9h-1V4.29h1v2.4l0,.93a4,4,0,0,1,.47-.48,2.63,2.63,0,0,1,.46-.32,1.85,1.85,0,0,1,.47-.18,2.32,2.32,0,0,1,.5-.05,1.73,1.73,0,0,1,1.36.54,2.35,2.35,0,0,1,.48,1.61Z"/><path class="cls-1" d="M34.07,7.53H32.33V6.68H35.1v5h1.75v.85H32.13v-.85h1.93Zm.36-3.31a.81.81,0,0,1,.32.06.77.77,0,0,1,.25.17.83.83,0,0,1,.17.25.82.82,0,0,1,0,.62.82.82,0,0,1-.17.26.77.77,0,0,1-.25.17.84.84,0,0,1-.63,0,.77.77,0,0,1-.25-.17.82.82,0,0,1-.17-.26.82.82,0,0,1,0-.62.83.83,0,0,1,.17-.25.77.77,0,0,1,.25-.17A.81.81,0,0,1,34.42,4.22Z"/><path class="cls-1" d="M43.32,11a1.4,1.4,0,0,1-.11.56,1.46,1.46,0,0,1-.29.44,1.79,1.79,0,0,1-.42.33,2.8,2.8,0,0,1-.51.22,3.37,3.37,0,0,1-.56.13,4,4,0,0,1-.56,0,10.54,10.54,0,0,1-1.1-.05,7.41,7.41,0,0,1-1-.17v-.94a8.17,8.17,0,0,0,1,.22,6.85,6.85,0,0,0,1,.08,2.27,2.27,0,0,0,1.08-.2.62.62,0,0,0,.35-.57.7.7,0,0,0-.06-.28.65.65,0,0,0-.2-.24,1.93,1.93,0,0,0-.45-.24q-.31-.12-.84-.28A6,6,0,0,1,40,9.73a2.47,2.47,0,0,1-.58-.35A1.52,1.52,0,0,1,39,8.9a1.41,1.41,0,0,1-.14-.65A1.49,1.49,0,0,1,39,7.71a1.46,1.46,0,0,1,.39-.54,2.17,2.17,0,0,1,.74-.42,3.53,3.53,0,0,1,1.17-.17q.35,0,.77,0a7.93,7.93,0,0,1,.88.13v.91A8.4,8.4,0,0,0,42,7.48a5.94,5.94,0,0,0-.75-.06,3,3,0,0,0-.64.06,1.33,1.33,0,0,0-.42.16.63.63,0,0,0-.23.24.64.64,0,0,0-.07.3.66.66,0,0,0,.06.29.69.69,0,0,0,.23.25,2.25,2.25,0,0,0,.47.24q.3.12.78.26a6.23,6.23,0,0,1,.88.32,2.27,2.27,0,0,1,.58.37,1.2,1.2,0,0,1,.32.46A1.66,1.66,0,0,1,43.32,11Z"/><path class="cls-1" d="M52.14,6.74l.63-.65,3.94,3.29-3.94,3.29L52.14,12l3.19-2.63Z"/><path class="cls-2" d="M59.42,15.46H2.83V2.54H59.42ZM3.08,15.21H59.17V2.79H3.08Z"/></svg>