<?xml version="1.0" standalone="no"?><!DOCTYPE svg PUBLIC "-//W3C//DTD SVG 1.1//EN" "http://www.w3.org/Graphics/SVG/1.1/DTD/svg11.dtd"><svg t="1559999759937" class="icon" style="" viewBox="0 0 1025 1024" version="1.1" xmlns="http://www.w3.org/2000/svg" p-id="32028" xmlns:xlink="http://www.w3.org/1999/xlink" width="200.1953125" height="200"><defs><style type="text/css"></style></defs><path d="M693.15015111 386.00021333c-12.00014222-6.00064-30.00092445-12.00014222-42.00106666-17.99964444-53.99893333-30.00092445-113.99964445-36.00042667-174.00035556-42.00106667-71.99857778 0-143.99943111 12.00014222-209.99964444 41.99992889-17.99964445 6.00064-35.99928889 17.99964445-53.99893334 30.00092444 0 0-6.00064 5.99950222-6.00064 12.00014223 6.00064 41.99992889 17.99964445 89.99936 29.99978667 137.99992889v5.99950222l17.99964444-71.99971556 17.99964445-71.99971555c0-12.00014222 6.00064-12.00014222 18.00078222-12.00014223 17.99964445 0 17.99964445 0 24.00028444 17.99964445 12.00014222 41.99992889 17.99964445 83.99985778 29.99978667 132.00042667 0 0 0 5.99950222 6.00064 5.99950222 5.99950222-29.99978667 11.99900445-66.00021333 17.99964445-96 5.99950222-12.00014222 5.99950222-29.99978667 12.00014222-41.99992889 0-12.00014222 5.99950222-12.00014222 17.99964444-12.00014222h17.99964444v6.00064c-17.99964445 59.99957333-35.99928889 125.99978667-47.9994311 192 0 5.99950222-6.00064 5.99950222-12.00014223 5.99950222-24.00028445 0-24.00028445 5.99950222-29.99978667-17.99964445-12.00014222-48.00056889-17.99964445-90.00049778-29.99978666-132.00042666 0 0 0-5.99950222-6.00064-5.99950222-5.99950222 17.99964445-5.99950222 35.99928889-12.00014222 47.99943111-5.99950222 35.99928889-17.99964445 66.00021333-23.99914667 102.00064 0 5.99950222-6.00064 11.99900445-12.00014222 5.99950222-24.00028445 0-17.99964445 5.99950222-24.00028445-17.99964445-12.00014222-48.00056889-24.00028445-102.00064-35.99928888-150.0000711 0-6.00064 0-6.00064-6.00064-12.00014223-6.00064 12.00014222-17.99964445 17.99964445-24.00028445 29.99978667-24.00028445 48.00056889-12.00014222 102.00064 24.00028445 138.00106666 35.99928889 35.99928889 78.00035555 59.99957333 125.99978666 71.99857778 83.99985778 30.00092445 174.00035555 30.00092445 258.00021334 12.00014222 29.99978667-5.99950222 53.99893333-12.00014222 83.99985777-23.99914666 17.99964445-6.00064 29.99978667-17.99964445 48.00056889-24.00028444l-12.00014222 12.00014222c-36.00042667 29.99978667-78.00035555 53.99893333-126.00092444 65.99907555-101.99950222 41.99992889-209.99964445 41.99992889-317.99978667 12.00014223-47.99943111-12.00014222-89.99936-35.99928889-125.99978667-66.00021334-41.99992889-35.99928889-71.99971555-71.99857778-78.00035556-125.99978666-5.99950222-47.99943111 12.00014222-89.99936 41.9999289-125.99978667 36.00042667-47.99943111 90.00049778-71.99971555 144.00056888-96 83.99985778-29.99978667 167.99971555-35.99928889 258.00021334-24.00028445 71.99971555 12.00014222 137.99992889 36.00042667 197.99950222 78.00035556 6.00064 6.00064 12.00014222 12.00014222 17.99964444 24.00028444 0-6.00064 0 0 0 0z" p-id="32029" fill="#1296db"></path><path d="M795.14965333 590.00035555c-5.99950222 0-5.99950222 0 0 0-29.99978667 35.99928889-90.00049778 23.99914667-113.99964444-12.00014222-30.00092445-48.00056889-24.00028445-120.00028445 17.99964444-156.00071111 35.99928889-23.99914667 96-17.99964445 113.99964445 30.00092445 6.00064 23.99914667 6.00064 23.99914667-17.99964445 23.99914666-12.00014222 0-17.99964445 0-17.99964444-11.99900444-6.00064-12.00014222-17.99964445-17.99964445-36.00042667-17.99964444s-29.99978667 5.99950222-35.99928889 23.99914666c-12.00014222 29.99978667-12.00014222 59.99957333 0 83.99985778 11.99900445 17.99964445 35.99928889 29.99978667 59.99957334 17.99964444 12.00014222-5.99950222 17.99964445-23.99914667 17.99964444-29.99978666 0-5.99950222-5.99950222-5.99950222-5.99950222-5.99950222H747.14908445V512l12.00014222-5.99950222h54.00007111l6.00064 5.99950222v90.00049778l-6.00064 5.99950222h-5.99950223c-12.00014222 0-12.00014222 0-17.99964444-12.00014222 5.99950222 0 5.99950222-5.99950222 5.99950222-5.99950223z m-240.00056888-108.00014222c6.00064-6.00064 12.00014222-6.00064 24.00028444-12.00014222 24.00028445-6.00064 41.99992889 0 54.00007111 24.00028444 17.99964445 23.99914667 12.00014222 77.99921778-5.99950222 101.99950223-17.99964445 24.00028445-48.00056889 24.00028445-72.00085333 6.00064-5.99950222 5.99950222-17.99964445 11.99900445-23.99914667 5.99950222l-6.00064-5.99950222v-174.00035556c0-6.00064 0-12.00014222 12.00014222-12.00014222h6.00064c5.99950222 0 11.99900445 0 11.99900445 5.99950222v60.00071111z m0 53.99893334c0 12.00128 0 18.00078222 6.00064 30.00092444 0 12.00014222 12.00014222 24.00028445 24.00028444 24.00028444s23.99914667-6.00064 23.99914666-17.99964444c6.00064-24.00028445 6.00064-42.00106667 0-66.00021333-5.99950222-12.00014222-11.99900445-17.99964445-23.99914666-17.99964445s-24.00028445 5.99950222-24.00028444 17.99964445c-6.00064 11.99900445-6.00064 23.99914667-6.00064 29.99978667zM849.14972445 512v-83.99985778c0-12.00014222 0-12.00014222 12.00014222-12.00014222h17.99964444c6.00064 0 6.00064 5.99950222 6.00064 5.99950222v144.00056889c0 5.99950222 0 5.99950222 11.99900444 5.99950222h66.00021334c6.00064 0 6.00064 0 12.00014222 6.00064 0 29.99978667 0 29.99978667-24.00028444 29.99978667H861.14986667c-6.00064 0-12.00014222 0-12.00014222-12.00014222V512zM513.14915555 565.99893333c0 18.00078222-17.99964445 42.00106667-35.99928888 48.00056889-41.99992889 6.00064-71.99971555-11.99900445-78.00035556-53.99893333 0-24.00028445 0-48.00056889 12.00014222-66.00021334s35.99928889-30.00092445 59.99957334-24.00028444c24.00028445 5.99950222 36.00042667 17.99964445 36.00042666 41.99992889 5.99950222 5.99950222 5.99950222 17.99964445 5.99950222 29.99978667 0 6.00064 0 12.00014222-11.99900444 12.00014222h-72.00085333c-12.00014222 0-12.00014222 6.00064-12.00014223 12.00014222 12.00014222 17.99964445 36.00042667 29.99978667 54.00007112 24.00028444 6.00064 0 6.00064-6.00064 12.00014222-12.00014222 12.00014222-12.00014222 12.00014222-12.00014222 29.99978666-12.00014222z m-23.99914666-35.99928888c0-17.99964445-6.00064-35.99928889-24.00028444-35.9992889-17.99964445-6.00064-35.99928889 0-35.9992889 17.99964445-6.00064 12.00014222 0 12.00014222 5.99950223 12.00014222 17.99964445 5.99950222 35.99928889 5.99950222 53.99893333 5.99950223z m503.99914666 66.00021333c-5.99950222 6.00064-5.99950222 6.00064-11.99900444 0h11.99900444z" p-id="32030" fill="#1296db"></path></svg>